<svg version="1" xmlns="http://www.w3.org/2000/svg" width="2649.333" height="2649.333" viewBox="0 0 1987.000000 1987.000000"><path d="M272.5 2.5c-3.3 1.4-7 2.5-8.1 2.5-1.2 0-2.4.6-2.7 1.2-.3.7-2.2 2.2-4.3 3.3-2.2 1.1-4.3 2.5-4.7 3.2-.4.7-1.5 1.3-2.3 1.3-1.8 0-6.2 2.8-9 5.7-1.2 1.3-2.4 2.3-2.8 2.3-1.6 0-15.6 13.5-22.1 21.3-2.2 2.7-5.2 7.2-6.7 10s-3.1 5.3-3.5 5.6c-1.5 1.1-4.3 6-4.3 7.6 0 .8-.7 1.5-1.5 1.5-1 0-1.5 1-1.5 3.3 0 1.8-.4 3.7-.9 4.2-1.7 1.8-6.3 15.9-7.2 22-.5 3.6-.8 371.2-.7 902 .3 832.9.4 896.2 2 899.5.9 1.9 2.4 5.9 3.3 8.8.9 2.8 2.1 5.2 2.6 5.2s.9 1.8.9 3.9c0 2.5.5 4.1 1.5 4.5.8.3 1.5 1.2 1.5 2.1 0 .9.9 2.6 2.1 3.8 1.1 1.2 3 4.1 4.1 6.5 1.1 2.3 3.1 5.2 4.4 6.5 1.3 1.2 2.4 2.6 2.4 3 0 .9 3.9 5.2 12.6 14.1 6.2 6.3 10.1 9.6 11.4 9.6.6 0 1 .6 1 1.4 0 .7.8 1.7 1.8 2 3.3 1.2 10.3 5.4 11.5 6.8.7.8 5 3.2 9.7 5.4l8.5 3.9h1431l4.7-2.3c2.6-1.2 5.2-2.2 5.7-2.2 1.4 0 7.2-3.3 9.5-5.4 1.2-1 3.7-2.5 5.6-3.3 1.9-.9 5.3-3.2 7.5-5.2s5.5-4.6 7.3-5.6c1.7-1.1 3.2-2.3 3.2-2.7 0-1 4.6-5.8 5.6-5.8 1.1 0 6.3-6 6.9-8.2.3-.9 2.3-3.4 4.5-5.5 2.1-2.2 4.2-5.3 4.6-6.9.3-1.6 1.2-3.4 2-4 3-2.4 10.4-18.7 11.9-26.1.4-1.8 1.1-3.3 1.6-3.3s.9-.8.9-1.8c0-1.1.7-3.2 1.5-4.9 1.3-2.7 1.5-103.4 1.2-899.4l-.2-896.4-3.1-8c-1.7-4.4-3.3-8.7-3.6-9.5-.3-.8-1.4-3.7-2.4-6.5-.9-2.7-2.6-5.9-3.6-7-1.1-1.1-2.2-3.2-2.5-4.7-.3-1.5-1.1-2.9-1.9-3.2-.8-.3-1.4-1-1.4-1.6 0-1.8-6.4-11-7.6-11-.7 0-1.4-1-1.8-2.3-.6-2.4-17-19.7-18.7-19.7-1.5 0-6.9-4.2-6.9-5.4 0-.6-1.9-2-4.3-3-6.2-2.9-15.7-8.8-15.7-9.7 0-.5-1.3-.9-3-.9-1.6 0-4.9-1-7.2-2.3l-4.3-2.2-98.2-.3L1502 0v398.4c0 342.9-.2 398.5-1.4 398.9-.8.3-1.7 0-2-.8-.2-.7-2.4-2.2-4.8-3.3-2.4-1.1-5.4-3-6.8-4.3-2.9-2.9-10.2-7.9-11.3-7.9-1.5 0-8.7-5.5-8.7-6.6 0-.6-1.2-1.6-2.7-2.3-1.6-.8-3.5-1.7-4.3-2.2-.8-.5-2.2-1.2-3-1.6-.8-.4-2.4-1.7-3.5-3s-2.8-2.3-3.8-2.3c-.9 0-1.7-.6-1.7-1.3 0-.6-1.7-2-3.8-2.9-4.6-2.1-7.1-3.8-9.2-6-1.6-1.8-7.5-5.5-10.2-6.4-1-.4-1.8-1.2-1.8-1.9 0-.8-1.8-2.1-4-3.1s-4-2.1-4-2.6c0-.4-.7-.8-1.5-.8s-2.2-1.1-3.1-2.5c-.9-1.4-2.4-2.5-3.3-2.5-.9 0-2.7-1-4.1-2.3-1.4-1.3-5.3-4-8.7-6.1-3.5-2.2-6.3-4.3-6.3-4.7 0-.5-.7-.9-1.5-.9s-1.5-.3-1.5-.8c0-.7-3-2.5-6.2-3.8-1-.3-1.8-1-1.8-1.5s-1.8-1.8-4-2.9c-2.2-1.1-4-2.4-4-2.8 0-.4-2.3-2.1-5.1-3.7-2.8-1.7-6.1-3.9-7.4-5-1.3-1.1-3.5-3-4.9-4.3-1.4-1.2-3.4-2.2-4.4-2.2-1 0-2.5-.8-3.4-1.8-3.2-3.4-6.6-6.2-7.6-6.2-.6 0-2.3-1.1-3.8-2.5s-3.5-2.5-4.5-2.5c-1.1 0-1.9-.6-1.9-1.4 0-.8-1.3-1.7-2.8-2.1-3.1-.6-8.2.9-8.2 2.5 0 .5-.7 1-1.4 1-.8 0-2.7 1.1-4.2 2.5s-3.3 2.5-4 2.5c-.7 0-3.1 1.8-5.3 4-2.2 2.2-4.8 4-5.9 4-1 0-4 2-6.7 4.5-2.8 2.5-5.4 4.5-5.9 4.5-1.3 0-10.6 6.3-10.6 7.2 0 .4-.5.8-1 .8-.6 0-2.3 1.1-3.8 2.5s-3.2 2.5-3.9 2.5c-1.2 0-3.8 1.8-7.2 5.1-.9.8-3.4 2.6-5.6 3.9-2.2 1.4-4.4 2.8-5 3.3-.5.4-2.3 1.7-4 2.7-1.6 1.1-3.9 2.5-4.9 3.2-1.1.7-3 2.3-4.2 3.5-1.1 1.3-2.9 2.3-3.8 2.3-.9 0-1.9.7-2.2 1.5-.4.8-1.2 1.5-1.9 1.5-.8 0-2.2 1-3.2 2.2-1 1.3-4.3 3.6-7.3 5.2s-6.4 3.7-7.6 4.7c-1.1 1.1-2.5 1.9-3.1 1.9-.6 0-1.4.7-1.7 1.5-.3.9-2 2.3-3.8 3.1-6.7 3.1-8.7 4.5-9.3 6.4-.4 1.1-1.4 2-2.4 2s-2.4.7-3.1 1.5c-.6.8-2.1 1.7-3.3 2.1-1.1.3-3.5 2.1-5.3 3.8-1.8 1.8-4.6 3.9-6.1 4.7-4.4 2.2-10.9 6.7-12.3 8.5-.8.8-3.5 2.6-6 3.9-2.5 1.3-5.2 3.1-5.9 3.9-1.2 1.5-1.5 1.4-3.2-.5-1.9-2.1-1.9-12.6-1.9-399.1V0H278.5l-6 2.5z"/></svg>